<svg xmlns="http://www.w3.org/2000/svg" width="600" height="300" viewBox="0 0 600 300">
  <defs>
    <style>
      @keyframes fadeIn {
        0% { opacity: 0; }
        100% { opacity: 1; }
      }
      @keyframes moveRight {
        0% { transform: translateX(0); }
        50% { transform: translateX(10px); }
        100% { transform: translateX(0); }
      }
      @keyframes pulse {
        0% { transform: scale(1); }
        50% { transform: scale(1.1); }
        100% { transform: scale(1); }
      }
      .video-card {
        animation: fadeIn 0.5s ease-out forwards;
      }
      .card1 { animation-delay: 0.2s; }
      .card2 { animation-delay: 0.4s; }
      .card3 { animation-delay: 0.6s; }
      .card4 { animation-delay: 0.8s; }
      .play-btn {
        animation: pulse 2s infinite;
      }
      .feature {
        animation: moveRight 3s infinite;
      }
    </style>
  </defs>
  
  <!-- Background -->
  <rect width="600" height="300" fill="#1e1e1e" rx="10" ry="10"/>
  
  <!-- Header -->
  <rect x="20" y="20" width="560" height="60" fill="#202020" rx="5" />
  <rect x="40" y="40" width="100" height="20" fill="#FF0000" rx="5" />
  <rect x="200" y="40" width="200" height="20" fill="#333" rx="10" />
  <circle cx="520" r="15" cy="40" fill="#777" />
  
  <!-- Sidebar -->
  <rect x="20" y="90" width="120" height="190" fill="#202020" rx="5" />
  
  <!-- Video Cards -->
  <g class="video-card card1">
    <rect x="160" y="90" width="130" height="90" fill="#333" rx="5" />
    <rect x="160" y="190" width="130" height="40" fill="#202020" rx="5" />
    <circle cx="175" cy="210" r="10" fill="#777" />
    <rect x="190" y="200" width="90" height="8" fill="#666" rx="2" />
    <rect x="190" y="215" width="70" height="6" fill="#555" rx="2" />
    <circle cx="225" cy="135" r="15" fill="rgba(255,0,0,0.7)" class="play-btn" />
    <polygon points="220,135 233,135 220,128 220,142" fill="#FFF" />
  </g>
  
  <g class="video-card card2">
    <rect x="300" y="90" width="130" height="90" fill="#333" rx="5" />
    <rect x="300" y="190" width="130" height="40" fill="#202020" rx="5" />
    <circle cx="315" cy="210" r="10" fill="#777" />
    <rect x="330" y="200" width="90" height="8" fill="#666" rx="2" />
    <rect x="330" y="215" width="70" height="6" fill="#555" rx="2" />
    <circle cx="365" cy="135" r="15" fill="rgba(255,0,0,0.7)" class="play-btn" />
    <polygon points="360,135 373,135 360,128 360,142" fill="#FFF" />
  </g>
  
  <g class="video-card card3">
    <rect x="440" y="90" width="130" height="90" fill="#333" rx="5" />
    <rect x="440" y="190" width="130" height="40" fill="#202020" rx="5" />
    <circle cx="455" cy="210" r="10" fill="#777" />
    <rect x="470" y="200" width="90" height="8" fill="#666" rx="2" />
    <rect x="470" y="215" width="70" height="6" fill="#555" rx="2" />
    <circle cx="505" cy="135" r="15" fill="rgba(255,0,0,0.7)" class="play-btn" />
    <polygon points="500,135 513,135 500,128 500,142" fill="#FFF" />
  </g>
  
  <!-- Features -->
  <g class="feature">
    <rect x="40" y="110" width="80" height="20" fill="#353535" rx="5" />
    <rect x="50" y="115" width="10" height="10" fill="#FF0000" />
  </g>
  <g class="feature">
    <rect x="40" y="140" width="80" height="20" fill="#353535" rx="5" />
    <rect x="50" y="145" width="10" height="10" fill="#FF0000" />
  </g>
  <g class="feature">
    <rect x="40" y="170" width="80" height="20" fill="#353535" rx="5" />
    <rect x="50" y="175" width="10" height="10" fill="#FF0000" />
  </g>
  <g class="feature">
    <rect x="40" y="200" width="80" height="20" fill="#353535" rx="5" />
    <rect x="50" y="205" width="10" height="10" fill="#FF0000" />
  </g>
</svg>
