<svg xmlns="http://www.w3.org/2000/svg" width="600" height="350" viewBox="0 0 600 350">
  <defs>
    <linearGradient id="videoGrad" x1="0%" y1="0%" x2="0%" y2="100%">
      <stop offset="0%" style="stop-color:#424242;stop-opacity:1" />
      <stop offset="100%" style="stop-color:#212121;stop-opacity:1" />
    </linearGradient>
    <style>
      @keyframes play {
        0% { width: 0%; }
        100% { width: 70%; }
      }
      @keyframes fadeIn {
        0% { opacity: 0; }
        100% { opacity: 1; }
      }
      @keyframes grow {
        0% { transform: scale(0.9); }
        100% { transform: scale(1); }
      }
      .progress {
        animation: play 8s linear infinite;
        transform-origin: left;
      }
      .controls {
        animation: fadeIn 1s ease-out forwards;
      }
      .modal {
        animation: grow 0.5s ease-out forwards;
      }
    </style>
  </defs>
  
  <!-- Background -->
  <rect width="600" height="350" fill="#0f0f0f"/>
  
  <!-- Modal Background -->
  <rect class="modal" x="50" y="30" width="500" height="290" fill="#191919" rx="10" />
  
  <!-- Video Player -->
  <rect x="70" y="50" width="460" height="200" fill="url(#videoGrad)" />
  
  <!-- Video Thumbnails in player -->
  <rect x="120" y="70" width="360" height="160" fill="#000" />
  <circle cx="300" cy="150" r="40" fill="rgba(255,255,255,0.15)" />
  <polygon points="290,130 320,150 290,170" fill="#FFF" />
  
  <!-- Video Title & Info -->
  <text x="70" y="280" font-family="Arial" font-size="18" fill="#FFF">Cool Animation Video Title</text>
  <text x="70" y="305" font-family="Arial" font-size="14" fill="#AAA">Channel Name • 1.2M views • 2 days ago</text>
  
  <!-- Progress Bar -->
  <rect x="70" y="260" width="460" height="4" fill="#555" rx="2" />
  <rect class="progress" x="70" y="260" width="0" height="4" fill="#FF0000" rx="2" />
  
  <!-- Controls -->
  <g class="controls">
    <circle cx="100" cy="240" r="15" fill="transparent" stroke="#FFF" stroke-width="2" />
    <polygon points="95,240 108,240 95,233 95,247" fill="#FFF" />
    
    <rect x="130" y="235" width="10" height="10" fill="#FFF" />
    
    <path d="M165,232 L165,248 L175,240 Z" fill="#FFF" />
    
    <rect x="420" y="235" width="25" height="10" fill="#FFF" rx="2" />
    
    <path d="M480,232 L495,240 L480,248 Z" fill="#FFF" />
    
    <!-- Volume -->
    <rect x="210" y="238" width="40" height="4" fill="#AAA" rx="2" />
    <rect x="210" y="238" width="25" height="4" fill="#FFF" rx="2" />
    <circle cx="235" cy="240" r="6" fill="#FFF" />
  </g>
</svg>
